<?xml version="1.0" standalone="no"?>
<!DOCTYPE svg PUBLIC "-//W3C//DTD SVG 20010904//EN"
 "http://www.w3.org/TR/2001/REC-SVG-20010904/DTD/svg10.dtd">
<svg version="1.0" xmlns="http://www.w3.org/2000/svg"
 width="512.000000pt" height="512.000000pt" viewBox="0 0 512.000000 512.000000"
 preserveAspectRatio="xMidYMid meet">

<g transform="translate(0.000000,512.000000) scale(0.100000,-0.100000)"
fill="#000000" stroke="none">
<path d="M2497 4830 c-26 -5 -66 -18 -90 -29 -23 -11 -556 -472 -1203 -1041
-1238 -1086 -1204 -1054 -1204 -1144 0 -58 27 -103 79 -134 l46 -27 342 -5
c188 -3 345 -9 350 -13 4 -5 10 -439 13 -965 5 -954 5 -957 27 -1004 30 -66
95 -132 156 -159 l52 -24 450 0 c440 0 451 0 497 22 65 30 137 99 164 158 l24
50 0 603 c0 603 2 633 34 654 6 4 176 8 377 8 300 0 369 -3 385 -14 18 -14 19
-35 24 -628 l5 -613 26 -55 c37 -80 72 -115 147 -152 l67 -33 349 -3 c232 -2
372 0 415 8 122 21 207 88 237 187 12 38 14 211 14 987 0 836 2 944 16 964 15
22 16 22 324 22 185 0 329 4 360 11 82 18 140 82 140 156 -1 40 -32 102 -71
142 -19 19 -539 478 -1156 1020 -870 764 -1136 993 -1185 1018 -69 35 -136 45
-211 33z m114 -233 c15 -7 514 -439 1109 -962 l1083 -950 -259 -5 c-301 -6
-314 -9 -394 -97 -85 -93 -80 -29 -80 -1093 l0 -937 -21 -19 c-20 -18 -41 -19
-380 -19 -331 0 -360 1 -376 18 -17 16 -18 60 -23 635 l-5 617 -26 50 c-38 70
-103 131 -166 155 -50 19 -78 20 -447 20 -463 0 -452 2 -544 -94 -104 -108
-96 -51 -102 -764 -5 -682 -1 -635 -65 -647 -16 -3 -202 -5 -412 -3 l-382 3
-23 23 -23 23 -5 962 -5 962 -22 40 c-34 64 -89 121 -141 147 -45 22 -60 23
-309 28 l-261 5 71 62 c40 33 533 462 1096 952 564 489 1034 892 1045 894 35
7 40 7 67 -6z"/>
</g>
</svg>
