<svg width="19" height="19" viewBox="0 0 19 19" fill="none" xmlns="http://www.w3.org/2000/svg">
<path d="M5 5C5 5.26522 4.89464 5.51957 4.70711 5.70711C4.51957 5.89464 4.26522 6 4 6H3C2.73478 6 2.48043 6.10536 2.29289 6.29289C2.10536 6.48043 2 6.73478 2 7V16C2 16.2652 2.10536 16.5196 2.29289 16.7071C2.48043 16.8946 2.73478 17 3 17H12C12.2652 17 12.5196 16.8946 12.7071 16.7071C12.8946 16.5196 13 16.2652 13 16V15C13 14.7348 13.1054 14.4804 13.2929 14.2929C13.4804 14.1054 13.7348 14 14 14C14.2652 14 14.5196 14.1054 14.7071 14.2929C14.8946 14.4804 15 14.7348 15 15V16C15 16.7956 14.6839 17.5587 14.1213 18.1213C13.5587 18.6839 12.7956 19 12 19H3C2.20435 19 1.44129 18.6839 0.87868 18.1213C0.316071 17.5587 0 16.7956 0 16V7C0 6.20435 0.316071 5.44129 0.87868 4.87868C1.44129 4.31607 2.20435 4 3 4H4C4.26522 4 4.51957 4.10536 4.70711 4.29289C4.89464 4.48043 5 4.73478 5 5Z" fill="#F68300"/>
<path d="M11.596 3.01094L15.988 7.40294L9.708 13.7059C9.61513 13.7991 9.50478 13.873 9.38329 13.9235C9.2618 13.9739 9.13155 13.9999 9 13.9999H6C5.73478 13.9999 5.48043 13.8946 5.29289 13.707C5.10536 13.5195 5 13.2652 5 12.9999V9.99994C5.00003 9.86839 5.02601 9.73814 5.07646 9.61665C5.12691 9.49515 5.20083 9.38481 5.294 9.29194L11.596 3.01094ZM18.092 0.907938C18.6435 1.45909 18.9669 2.19801 18.9975 2.97713C19.0281 3.75625 18.7636 4.51824 18.257 5.11094L18.093 5.29094L17.4 5.98494L13.013 1.59794L13.708 0.907938C14.2894 0.326594 15.0778 0 15.9 0C16.7222 0 17.5106 0.326594 18.092 0.907938Z" fill="#F68300"/>
</svg>
