<?xml version="1.0" standalone="no"?>
<!DOCTYPE svg PUBLIC "-//W3C//DTD SVG 20010904//EN"
 "http://www.w3.org/TR/2001/REC-SVG-20010904/DTD/svg10.dtd">
<svg version="1.0" xmlns="http://www.w3.org/2000/svg"
 width="512.000000pt" height="512.000000pt" viewBox="0 0 512.000000 512.000000"
 preserveAspectRatio="xMidYMid meet">

<g transform="translate(0.000000,512.000000) scale(0.100000,-0.100000)"
fill="#000000" stroke="none">
<path d="M445 5110 c-194 -40 -352 -179 -417 -368 l-23 -67 0 -2115 0 -2115
23 -67 c57 -163 178 -286 348 -350 l59 -23 1360 -3 c1503 -3 1435 -6 1566 60
82 41 187 145 227 224 67 133 67 134 67 615 l0 435 -28 42 c-63 97 -213 110
-289 25 -46 -51 -48 -70 -48 -492 0 -258 -4 -410 -11 -428 -13 -34 -55 -80
-91 -99 -23 -12 -232 -14 -1359 -14 l-1332 0 -41 24 c-23 13 -51 42 -64 64
l-22 40 0 2062 0 2063 24 41 c13 23 42 51 64 64 l40 22 1331 0 c1127 0 1336
-2 1359 -14 36 -19 78 -65 91 -99 7 -18 11 -170 11 -428 0 -422 2 -441 48
-492 70 -78 221 -72 280 10 41 58 44 89 40 523 -5 455 -4 454 -70 585 -37 72
-141 178 -215 218 -28 15 -86 36 -129 47 -75 19 -113 20 -1418 19 -738 -1
-1359 -5 -1381 -9z"/>
<path d="M4121 3453 c-43 -21 -88 -83 -96 -132 -14 -86 0 -107 244 -353 l225
-228 -1084 0 -1083 0 -41 -24 c-117 -68 -117 -244 0 -312 l41 -24 1083 0 1084
0 -225 -227 c-244 -247 -258 -268 -244 -354 9 -50 54 -111 98 -132 40 -19 112
-22 154 -6 38 14 811 785 829 826 8 18 14 51 14 73 0 22 -6 55 -14 73 -18 41
-791 812 -829 826 -42 16 -117 13 -156 -6z"/>
</g>
</svg>
