<?xml version="1.0" standalone="no"?>
<!DOCTYPE svg PUBLIC "-//W3C//DTD SVG 20010904//EN"
 "http://www.w3.org/TR/2001/REC-SVG-20010904/DTD/svg10.dtd">
<svg version="1.0" xmlns="http://www.w3.org/2000/svg"
 width="512.000000pt" height="512.000000pt" viewBox="0 0 512.000000 512.000000"
 preserveAspectRatio="xMidYMid meet">

<g transform="translate(0.000000,512.000000) scale(0.100000,-0.100000)"
fill="#000000" stroke="none">
<path d="M2488 5099 c-23 -12 -46 -35 -58 -59 -18 -36 -20 -58 -20 -293 l0
-254 -57 -7 c-166 -20 -350 -74 -508 -151 -520 -255 -859 -735 -925 -1310 -6
-54 -10 -412 -10 -902 0 -563 -3 -828 -11 -865 -16 -74 -62 -162 -115 -218
-74 -79 -214 -140 -320 -140 -80 0 -154 -72 -154 -150 0 -50 35 -107 80 -130
39 -20 54 -20 2170 -20 2116 0 2131 0 2170 20 45 23 80 80 80 130 0 78 -74
150 -154 150 -188 0 -359 130 -429 325 -8 20 -13 325 -17 925 -5 780 -8 906
-23 979 -72 360 -219 642 -462 886 -253 253 -579 417 -924 466 l-91 13 0 253
c0 235 -2 257 -20 293 -37 73 -127 99 -202 59z"/>
<path d="M2020 234 c186 -190 437 -270 688 -218 152 31 276 100 392 218 l64
66 -604 0 -604 0 64 -66z"/>
</g>
</svg>
