<?xml version="1.0" standalone="no"?>
<!DOCTYPE svg PUBLIC "-//W3C//DTD SVG 20010904//EN"
 "http://www.w3.org/TR/2001/REC-SVG-20010904/DTD/svg10.dtd">
<svg version="1.0" xmlns="http://www.w3.org/2000/svg"
 width="512.000000pt" height="512.000000pt" viewBox="0 0 512.000000 512.000000"
 preserveAspectRatio="xMidYMid meet">

<g transform="translate(0.000000,512.000000) scale(0.100000,-0.100000)"
fill="#000000" stroke="none">
<path d="M2323 5109 c-772 -74 -1475 -498 -1899 -1144 -212 -323 -343 -673
-400 -1070 -24 -165 -24 -505 0 -670 111 -772 530 -1422 1186 -1839 103 -66
353 -186 485 -234 907 -329 1940 -108 2634 563 229 222 386 436 521 710 94
191 140 312 185 489 113 443 113 861 0 1301 -34 134 -79 174 -143 129 -41 -28
-43 -52 -12 -173 100 -392 105 -779 14 -1161 -86 -364 -267 -721 -510 -1004
-78 -92 -73 -94 -99 54 -36 201 -139 452 -257 629 -179 268 -434 489 -721 625
-63 29 -208 82 -306 112 -8 3 14 22 50 45 170 111 304 300 362 514 29 107 30
316 3 419 -136 513 -647 793 -1143 626 -246 -82 -461 -297 -543 -543 -128
-379 15 -806 339 -1016 38 -24 58 -43 50 -45 -8 -3 -63 -21 -124 -41 -441
-145 -820 -483 -1027 -915 -54 -113 -113 -294 -133 -411 -26 -145 -19 -143
-108 -37 -248 293 -433 677 -512 1055 -47 227 -59 563 -30 790 92 696 471
1304 1060 1697 117 78 358 200 500 252 452 166 975 187 1448 59 96 -26 123
-23 151 17 44 63 5 108 -124 142 -277 74 -619 102 -897 75z m452 -1223 c113
-36 198 -89 290 -181 131 -131 199 -277 212 -454 30 -434 -330 -796 -765 -767
-107 6 -228 43 -320 97 -77 46 -208 179 -255 259 -21 36 -49 101 -64 145 -22
68 -26 98 -27 205 -1 148 14 215 76 340 73 147 234 290 388 346 143 51 324 55
465 10z m89 -1596 c440 -88 821 -350 1054 -725 132 -213 214 -462 237 -716 l6
-76 -68 -55 c-361 -295 -772 -473 -1226 -533 -240 -31 -573 -16 -816 36 -362
79 -751 268 -1014 494 l-78 67 6 66 c46 487 286 905 680 1184 213 151 472 246
765 282 83 10 358 -4 454 -24z"/>
<path d="M4085 5106 c-314 -60 -577 -286 -675 -579 -187 -555 195 -1126 779
-1164 415 -27 792 249 904 662 29 107 30 316 3 419 -87 328 -316 559 -641 648
-92 25 -276 32 -370 14z m370 -180 c113 -36 198 -89 290 -181 131 -131 199
-277 212 -454 30 -434 -330 -796 -765 -767 -107 6 -228 43 -320 97 -77 46
-208 179 -255 259 -21 36 -49 101 -64 145 -22 68 -26 98 -27 205 -1 148 14
215 76 340 73 147 234 290 388 346 143 51 324 55 465 10z"/>
<path d="M4185 4775 l-25 -24 0 -273 0 -272 103 -103 c88 -88 108 -103 135
-103 44 0 82 38 82 81 0 26 -14 46 -80 113 l-80 82 0 238 0 237 -25 24 c-15
16 -36 25 -55 25 -19 0 -40 -9 -55 -25z"/>
</g>
</svg>
