<?xml version="1.0" standalone="no"?>
<!DOCTYPE svg PUBLIC "-//W3C//DTD SVG 20010904//EN"
 "http://www.w3.org/TR/2001/REC-SVG-20010904/DTD/svg10.dtd">
<svg version="1.0" xmlns="http://www.w3.org/2000/svg"
 width="512.000000pt" height="512.000000pt" viewBox="0 0 512.000000 512.000000"
 preserveAspectRatio="xMidYMid meet">

<g transform="translate(0.000000,512.000000) scale(0.100000,-0.100000)"
fill="#000000" stroke="none">
<path d="M2330 5110 c-494 -48 -950 -230 -1350 -538 -195 -150 -448 -432 -594
-662 -63 -99 -186 -351 -230 -471 -49 -134 -102 -340 -128 -499 -31 -195 -31
-565 0 -760 45 -276 116 -498 237 -745 132 -269 269 -460 489 -681 221 -220
412 -357 681 -489 247 -121 469 -192 745 -237 195 -31 565 -31 760 0 276 45
498 116 745 237 269 132 460 269 681 489 220 221 357 412 489 681 88 179 132
296 180 476 63 240 78 371 78 649 0 278 -15 409 -78 649 -48 180 -92 297 -180
476 -132 269 -269 460 -489 681 -221 220 -412 357 -681 489 -246 121 -474 193
-740 235 -147 23 -475 34 -615 20z m560 -325 c474 -73 892 -281 1234 -614 242
-237 409 -485 530 -793 104 -261 150 -514 150 -818 0 -233 -15 -356 -69 -568
-144 -562 -522 -1064 -1027 -1365 -249 -149 -527 -247 -828 -294 -159 -24
-481 -24 -640 0 -486 76 -900 281 -1244 616 -242 237 -409 485 -530 793 -104
261 -150 514 -150 818 0 233 15 356 69 568 144 562 522 1064 1027 1365 290
173 599 272 973 311 82 8 404 -4 505 -19z"/>
<path d="M1540 3988 c-54 -37 -72 -70 -72 -127 0 -32 6 -61 18 -78 9 -16 210
-294 446 -620 235 -325 428 -596 428 -603 0 -7 -193 -278 -428 -603 -236 -326
-437 -605 -447 -621 -25 -38 -24 -119 2 -155 54 -72 147 -93 214 -48 21 14
186 234 444 589 225 312 412 568 415 568 3 0 190 -256 415 -568 258 -355 423
-575 444 -589 67 -45 160 -24 214 48 25 35 26 118 1 156 -9 16 -210 294 -446
620 -235 325 -428 596 -428 603 0 7 193 278 428 603 236 326 437 604 446 620
25 38 24 121 -1 156 -54 72 -147 93 -214 48 -21 -14 -186 -234 -444 -589 -225
-312 -412 -568 -415 -568 -3 0 -190 256 -415 568 -258 355 -423 575 -444 589
-46 31 -116 31 -161 1z"/>
</g>
</svg>
